<svg xmlns="http://www.w3.org/2000/svg" width="47" height="49" viewBox="0 0 47 49" fill="none">
  <path fill-rule="evenodd" clip-rule="evenodd" d="M27.7016 31.3682C28.6351 32.1414 28.7847 33.5493 28.0357 34.5128L19.172 45.9168C18.7863 46.4128 18.2143 46.716 17.5989 46.7505C16.9835 46.7849 16.3832 46.5472 15.9478 46.097L11.8402 41.8485C10.9948 40.9741 10.9961 39.5577 11.8433 38.6851C12.6904 37.8123 14.0625 37.8138 14.908 38.6882L17.306 41.1685L24.6552 31.7132C25.4042 30.7495 26.7681 30.5951 27.7016 31.3682Z" fill="#FFD527"/>
  <path fill-rule="evenodd" clip-rule="evenodd" d="M39.5661 31.5715C40.5106 32.3304 40.6802 33.7359 39.945 34.7107L31.5135 45.8909C31.1316 46.3975 30.5574 46.7101 29.9367 46.7495C29.316 46.7889 28.709 46.5514 28.2697 46.097L26.1078 43.861C25.2624 42.9865 25.2637 41.5703 26.1109 40.6975C26.9579 39.8247 28.3301 39.8262 29.1756 40.7007L29.6023 41.1421L36.525 31.9626C37.2601 30.9877 38.6217 30.8126 39.5661 31.5715Z" fill="#FFD527"/>
  <path fill-rule="evenodd" clip-rule="evenodd" d="M23.3166 6.05757C14.3687 6.05757 7.10749 13.5613 7.10749 22.827C7.10749 26.3649 8.16403 29.6403 9.96785 32.3429C10.6469 33.3603 10.3983 34.7531 9.41282 35.454C8.42719 36.1549 7.07785 35.8985 6.39884 34.8811C4.11235 31.4554 2.77344 27.2994 2.77344 22.827C2.77344 11.0989 11.9669 1.58374 23.3166 1.58374C34.6664 1.58374 43.8598 11.0989 43.8598 22.827C43.8598 23.7565 43.8019 24.673 43.6895 25.5728C43.5364 26.7981 42.4501 27.6634 41.2632 27.5053C40.0761 27.3473 39.2379 26.2258 39.3911 25.0007C39.4798 24.29 39.5258 23.5646 39.5258 22.827C39.5258 13.5613 32.2645 6.05757 23.3166 6.05757Z" fill="white"/>
  <path d="M17.4813 23.9448C19.6304 23.9448 21.3726 22.1427 21.3726 19.9199C21.3726 17.6971 19.6304 15.895 17.4813 15.895C15.3321 15.895 13.5898 17.6971 13.5898 19.9199C13.5898 22.1427 15.3321 23.9448 17.4813 23.9448Z" fill="white"/>
</svg>