<svg  width="240" height="54" viewBox="0 0 899 255" fill="none" xmlns="http://www.w3.org/2000/svg">
<path fill-rule="evenodd" clip-rule="evenodd" d="M141.344 167.504C146.638 171.852 147.486 179.769 143.239 185.187L92.9732 249.314C90.7856 252.103 87.5421 253.808 84.0522 254.002C80.5623 254.196 77.1578 252.859 74.6886 250.327L51.3945 226.437C46.6005 221.52 46.6075 213.556 51.4121 208.649C56.2157 203.741 63.9972 203.749 68.7921 208.666L82.3909 222.614L124.068 169.444C128.316 164.025 136.051 163.157 141.344 167.504Z" fill="#fff"/>
<path fill-rule="evenodd" clip-rule="evenodd" d="M208.649 168.65C214.005 172.918 214.967 180.821 210.798 186.302L162.983 249.171C160.817 252.02 157.56 253.778 154.041 254C150.521 254.221 147.078 252.886 144.587 250.33L132.327 237.757C127.533 232.839 127.54 224.876 132.344 219.968C137.148 215.06 144.93 215.068 149.724 219.986L152.144 222.468L191.403 170.85C195.572 165.367 203.293 164.383 208.649 168.65Z" fill="#fff"/>
<path fill-rule="evenodd" clip-rule="evenodd" d="M116.5 25.1808C65.7567 25.1808 24.5784 67.376 24.5784 119.479C24.5784 139.373 30.57 157.792 40.7994 172.989C44.6501 178.71 43.2404 186.542 37.6518 190.484C32.0624 194.425 24.4103 192.983 20.5596 187.262C7.59295 167.998 0 144.629 0 119.479C0 53.5295 52.1359 0.0234375 116.5 0.0234375C180.864 0.0234375 233 53.5295 233 119.479C233 124.706 232.672 129.859 232.035 134.919C231.166 141.81 225.006 146.675 218.275 145.786C211.543 144.898 206.79 138.591 207.658 131.702C208.162 127.706 208.422 123.627 208.422 119.479C208.422 67.376 167.244 25.1808 116.5 25.1808Z" fill="#3B82F6"/>
<path d="M83.4085 125.768C95.5959 125.768 105.476 115.634 105.476 103.135C105.476 90.635 95.5959 80.5017 83.4085 80.5017C71.2203 80.5017 61.3401 90.635 61.3401 103.135C61.3401 115.634 71.2203 125.768 83.4085 125.768Z" fill="#3B82F6"/>
<path d="M274.927 4.85057H297.062L320.441 61.8966H321.436L344.815 4.85057H366.951V89.7563H349.541V34.4929H348.836L326.866 89.3417H315.011L293.041 34.2856H292.337V89.7563H274.927V4.85057Z" fill="#fff"/>
<path d="M410.175 91C403.736 91 398.167 89.6319 393.47 86.8957C388.799 84.1318 385.193 80.29 382.651 75.3704C380.108 70.4231 378.837 64.6881 378.837 58.1654C378.837 51.5874 380.108 45.8386 382.651 40.9189C385.193 35.9716 388.799 32.1298 393.47 29.3936C398.167 26.6298 403.736 25.2478 410.175 25.2478C416.614 25.2478 422.168 26.6298 426.839 29.3936C431.536 32.1298 435.157 35.9716 437.699 40.9189C440.241 45.8386 441.513 51.5874 441.513 58.1654C441.513 64.6881 440.241 70.4231 437.699 75.3704C435.157 80.29 431.536 84.1318 426.839 86.8957C422.168 89.6319 416.614 91 410.175 91ZM410.258 77.3189C413.187 77.3189 415.633 76.4897 417.595 74.8314C419.557 73.1455 421.035 70.8515 422.03 67.9494C423.053 65.0474 423.564 61.7446 423.564 58.041C423.564 54.3374 423.053 51.0346 422.03 48.1326C421.035 45.2305 419.557 42.9365 417.595 41.2506C415.633 39.5646 413.187 38.7216 410.258 38.7216C407.301 38.7216 404.814 39.5646 402.796 41.2506C400.807 42.9365 399.3 45.2305 398.278 48.1326C397.283 51.0346 396.786 54.3374 396.786 58.041C396.786 61.7446 397.283 65.0474 398.278 67.9494C399.3 70.8515 400.807 73.1455 402.796 74.8314C404.814 76.4897 407.301 77.3189 410.258 77.3189Z" fill="#fff"/>
<path d="M453.326 89.7563V4.85057H470.985V36.7731H471.524C472.298 35.0595 473.417 33.3183 474.882 31.5494C476.374 29.7529 478.308 28.2604 480.685 27.072C483.089 25.8559 486.074 25.2478 489.639 25.2478C494.281 25.2478 498.565 26.4639 502.489 28.8961C506.413 31.3007 509.549 34.9352 511.898 39.7995C514.247 44.6363 515.422 50.703 515.422 57.9995C515.422 65.1027 514.275 71.1002 511.981 75.9922C509.715 80.8566 506.62 84.5464 502.696 87.0615C498.799 89.549 494.433 90.7927 489.597 90.7927C486.17 90.7927 483.255 90.2261 480.851 89.0929C478.474 87.9598 476.526 86.5364 475.006 84.8228C473.486 83.0815 472.325 81.3265 471.524 79.5576H470.736V89.7563H453.326ZM470.612 57.9166C470.612 61.7031 471.137 65.0059 472.187 67.8251C473.237 70.6442 474.757 72.8415 476.747 74.4169C478.737 75.9646 481.155 76.7385 484.001 76.7385C486.875 76.7385 489.307 75.9508 491.297 74.3754C493.286 72.7724 494.792 70.5613 495.815 67.7421C496.865 64.8954 497.39 61.6202 497.39 57.9166C497.39 54.2407 496.879 51.007 495.856 48.2155C494.834 45.424 493.328 43.2405 491.338 41.6651C489.348 40.0897 486.903 39.302 484.001 39.302C481.127 39.302 478.695 40.0621 476.705 41.5822C474.743 43.1024 473.237 45.2582 472.187 48.0497C471.137 50.8412 470.612 54.1301 470.612 57.9166Z" fill="#fff"/>
<path d="M527.205 89.7563V26.077H544.863V89.7563H527.205ZM536.075 17.8683C533.45 17.8683 531.198 16.9977 529.319 15.2565C527.467 13.4876 526.541 11.3733 526.541 8.91344C526.541 6.48125 527.467 4.39453 529.319 2.65331C531.198 0.884436 533.45 0 536.075 0C538.701 0 540.939 0.884436 542.791 2.65331C544.67 4.39453 545.609 6.48125 545.609 8.91344C545.609 11.3733 544.67 13.4876 542.791 15.2565C540.939 16.9977 538.701 17.8683 536.075 17.8683Z" fill="#fff"/>
<path d="M637.353 47.3034C637.353 56.5623 635.598 64.4393 632.089 70.9344C628.607 77.4295 623.854 82.3906 617.829 85.8178C611.833 89.2173 605.09 90.9171 597.601 90.9171C590.056 90.9171 583.286 89.2035 577.289 85.7763C571.292 82.3491 566.553 77.388 563.071 70.8929C559.589 64.3979 557.848 56.5347 557.848 47.3034C557.848 38.0445 559.589 30.1675 563.071 23.6724C566.553 17.1774 571.292 12.2301 577.289 8.83053C583.286 5.40334 590.056 3.68975 597.601 3.68975C605.09 3.68975 611.833 5.40334 617.829 8.83053C623.854 12.2301 628.607 17.1774 632.089 23.6724C635.598 30.1675 637.353 38.0445 637.353 47.3034ZM619.156 47.3034C619.156 41.3058 618.258 36.248 616.461 32.1298C614.693 28.0117 612.192 24.8885 608.959 22.7604C605.725 20.6322 601.939 19.5681 597.601 19.5681C593.262 19.5681 589.476 20.6322 586.243 22.7604C583.009 24.8885 580.495 28.0117 578.699 32.1298C576.93 36.248 576.046 41.3058 576.046 47.3034C576.046 53.301 576.93 58.3588 578.699 62.477C580.495 66.5951 583.009 69.7183 586.243 71.8465C589.476 73.9746 593.262 75.0387 597.601 75.0387C601.939 75.0387 605.725 73.9746 608.959 71.8465C612.192 69.7183 614.693 66.5951 616.461 62.477C618.258 58.3588 619.156 53.301 619.156 47.3034Z" fill="#fff"/>
<path d="M684.557 26.077V39.3435H645.26V26.077H684.557ZM654.255 89.7563V21.4752C654.255 16.8595 655.154 13.0316 656.95 9.99134C658.774 6.9511 661.261 4.67092 664.411 3.1508C667.562 1.63067 671.14 0.870614 675.147 0.870614C677.856 0.870614 680.329 1.0779 682.567 1.49249C684.833 1.90706 686.519 2.28018 687.624 2.61185L684.474 15.8784C683.783 15.6573 682.926 15.45 681.904 15.2565C680.909 15.063 679.887 14.9663 678.837 14.9663C676.239 14.9663 674.429 15.5743 673.406 16.7904C672.384 17.9789 671.873 19.651 671.873 21.8068V89.7563H654.255Z" fill="#fff"/>
<path d="M729.584 26.077V39.3435H690.288V26.077H729.584ZM699.283 89.7563V21.4752C699.283 16.8595 700.181 13.0316 701.977 9.99134C703.801 6.9511 706.288 4.67092 709.439 3.1508C712.589 1.63067 716.168 0.870614 720.175 0.870614C722.883 0.870614 725.356 1.0779 727.595 1.49249C729.861 1.90706 731.546 2.28018 732.652 2.61185L729.501 15.8784C728.811 15.6573 727.954 15.45 726.931 15.2565C725.937 15.063 724.914 14.9663 723.864 14.9663C721.266 14.9663 719.456 15.5743 718.434 16.7904C717.411 17.9789 716.9 19.651 716.9 21.8068V89.7563H699.283Z" fill="#fff"/>
<path d="M740.372 89.7563V26.077H758.031V89.7563H740.372ZM749.243 17.8683C746.618 17.8683 744.365 16.9977 742.486 15.2565C740.635 13.4876 739.709 11.3733 739.709 8.91344C739.709 6.48125 740.635 4.39453 742.486 2.65331C744.365 0.884436 746.618 0 749.243 0C751.868 0 754.107 0.884436 755.958 2.65331C757.837 4.39453 758.777 6.48125 758.777 8.91344C758.777 11.3733 757.837 13.4876 755.958 15.2565C754.107 16.9977 751.868 17.8683 749.243 17.8683Z" fill="#fff"/>
<path d="M800.944 91C794.422 91 788.813 89.6181 784.115 86.8542C779.444 84.0627 775.852 80.1933 773.337 75.246C770.85 70.2987 769.606 64.6052 769.606 58.1654C769.606 51.6427 770.864 45.9215 773.379 41.0018C775.921 36.0545 779.527 32.1989 784.198 29.4351C788.868 26.6436 794.422 25.2478 800.861 25.2478C806.416 25.2478 811.28 26.2566 815.452 28.2743C819.625 30.2919 822.928 33.1248 825.36 36.7731C827.791 40.4214 829.132 44.7054 829.38 49.6251H812.717C812.247 46.4466 811.003 43.8901 808.986 41.9554C806.996 39.993 804.385 39.0118 801.151 39.0118C798.416 39.0118 796.025 39.7581 793.98 41.2506C791.963 42.7154 790.388 44.8574 789.255 47.6765C788.122 50.4957 787.555 53.909 787.555 57.9166C787.555 61.9795 788.108 65.4343 789.213 68.2811C790.346 71.1279 791.935 73.2975 793.98 74.79C796.025 76.2825 798.416 77.0287 801.151 77.0287C803.169 77.0287 804.979 76.6141 806.582 75.785C808.212 74.9558 809.552 73.7535 810.603 72.1781C811.68 70.5751 812.385 68.6542 812.717 66.4155H829.38C829.104 71.2799 827.778 75.5638 825.401 79.2674C823.052 82.9433 819.805 85.8178 815.66 87.8907C811.515 89.9635 806.609 91 800.944 91Z" fill="#fff"/>
<path d="M869.703 91C863.154 91 857.516 89.6733 852.79 87.02C848.093 84.3391 844.472 80.5526 841.93 75.6606C839.388 70.7409 838.116 64.923 838.116 58.2068C838.116 51.6565 839.388 45.9077 841.93 40.9604C844.472 36.0131 848.051 32.1575 852.666 29.3936C857.309 26.6298 862.753 25.2478 868.998 25.2478C873.199 25.2478 877.109 25.925 880.729 27.2793C884.377 28.6059 887.555 30.6097 890.263 33.2907C892.999 35.9716 895.127 39.3435 896.647 43.4064C898.167 47.4416 898.927 52.1678 898.927 57.585V62.4355H845.163V51.4907H882.304C882.304 48.9479 881.752 46.6954 880.646 44.733C879.541 42.7707 878.007 41.2367 876.045 40.1312C874.111 38.998 871.858 38.4314 869.288 38.4314C866.608 38.4314 864.231 39.0533 862.159 40.297C860.114 41.5131 858.511 43.1576 857.35 45.2305C856.19 47.2758 855.595 49.556 855.568 52.0711V62.477C855.568 65.6278 856.148 68.3502 857.309 70.6442C858.497 72.9382 860.169 74.7071 862.325 75.9508C864.48 77.1945 867.036 77.8164 869.993 77.8164C871.955 77.8164 873.751 77.54 875.382 76.9872C877.012 76.4345 878.408 75.6053 879.569 74.4998C880.729 73.3942 881.614 72.0399 882.222 70.4369L898.554 71.5148C897.725 75.4395 896.025 78.8667 893.455 81.7963C890.913 84.6984 887.624 86.9648 883.589 88.5954C879.582 90.1985 874.954 91 869.703 91Z" fill="#fff"/>
<rect x="275.476" y="109.634" width="622.902" height="144.414" rx="37.268" fill="#3B82F6"/>
<path d="M336.327 219.341H309.905V144.805H336.546C344.043 144.805 350.497 146.297 355.908 149.281C361.318 152.241 365.479 156.5 368.391 162.056C371.327 167.612 372.795 174.26 372.795 182C372.795 189.764 371.327 196.437 368.391 202.017C365.479 207.598 361.294 211.88 355.835 214.864C350.4 217.849 343.897 219.341 336.327 219.341ZM325.664 205.838H335.672C340.331 205.838 344.249 205.014 347.428 203.364C350.63 201.689 353.033 199.105 354.634 195.612C356.259 192.093 357.072 187.556 357.072 182C357.072 176.492 356.259 171.992 354.634 168.498C353.033 165.004 350.643 162.432 347.464 160.782C344.286 159.132 340.367 158.307 335.709 158.307H325.664V205.838ZM409.435 220.433C403.782 220.433 398.893 219.232 394.768 216.83C390.667 214.403 387.501 211.031 385.269 206.712C383.037 202.369 381.921 197.334 381.921 191.608C381.921 185.834 383.037 180.787 385.269 176.468C387.501 172.125 390.667 168.752 394.768 166.35C398.893 163.924 403.782 162.711 409.435 162.711C415.088 162.711 419.965 163.924 424.066 166.35C428.19 168.752 431.369 172.125 433.601 176.468C435.833 180.787 436.949 185.834 436.949 191.608C436.949 197.334 435.833 202.369 433.601 206.712C431.369 211.031 428.19 214.403 424.066 216.83C419.965 219.232 415.088 220.433 409.435 220.433ZM409.508 208.422C412.08 208.422 414.227 207.695 415.95 206.239C417.672 204.759 418.97 202.745 419.844 200.197C420.742 197.65 421.19 194.75 421.19 191.499C421.19 188.248 420.742 185.348 419.844 182.801C418.97 180.253 417.672 178.239 415.95 176.759C414.227 175.279 412.08 174.539 409.508 174.539C406.912 174.539 404.728 175.279 402.957 176.759C401.21 178.239 399.887 180.253 398.99 182.801C398.116 185.348 397.68 188.248 397.68 191.499C397.68 194.75 398.116 197.65 398.99 200.197C399.887 202.745 401.21 204.759 402.957 206.239C404.728 207.695 406.912 208.422 409.508 208.422ZM482.879 195.539V163.439H498.383V219.341H483.498V209.187H482.915C481.654 212.462 479.555 215.095 476.619 217.084C473.708 219.074 470.153 220.069 465.956 220.069C462.219 220.069 458.931 219.22 456.093 217.521C453.254 215.823 451.034 213.409 449.433 210.279C447.855 207.149 447.055 203.4 447.03 199.033V163.439H462.535V196.267C462.559 199.566 463.444 202.175 465.191 204.092C466.938 206.008 469.28 206.967 472.216 206.967C474.084 206.967 475.831 206.542 477.456 205.693C479.082 204.819 480.392 203.533 481.387 201.835C482.406 200.137 482.903 198.038 482.879 195.539ZM511.076 219.341V144.805H526.58V172.829H527.053C527.732 171.324 528.715 169.796 530.001 168.243C531.311 166.666 533.01 165.356 535.096 164.312C537.207 163.245 539.827 162.711 542.957 162.711C547.034 162.711 550.794 163.778 554.24 165.914C557.685 168.025 560.439 171.215 562.501 175.485C564.564 179.731 565.595 185.057 565.595 191.463C565.595 197.698 564.588 202.963 562.574 207.258C560.584 211.528 557.867 214.767 554.422 216.975C551.001 219.159 547.167 220.251 542.921 220.251C539.912 220.251 537.353 219.753 535.242 218.759C533.155 217.764 531.445 216.514 530.11 215.01C528.776 213.481 527.757 211.941 527.053 210.388H526.361V219.341H511.076ZM526.252 191.39C526.252 194.714 526.713 197.613 527.635 200.088C528.557 202.563 529.892 204.492 531.639 205.875C533.386 207.234 535.509 207.913 538.008 207.913C540.531 207.913 542.666 207.221 544.413 205.838C546.16 204.431 547.482 202.49 548.38 200.015C549.302 197.516 549.763 194.641 549.763 191.39C549.763 188.163 549.314 185.324 548.417 182.873C547.519 180.423 546.196 178.506 544.45 177.123C542.703 175.74 540.555 175.049 538.008 175.049C535.484 175.049 533.349 175.716 531.602 177.05C529.88 178.385 528.557 180.277 527.635 182.728C526.713 185.178 526.252 188.066 526.252 191.39ZM591.444 144.805V219.341H575.94V144.805H591.444ZM629.34 220.433C623.589 220.433 618.64 219.268 614.491 216.939C610.366 214.585 607.188 211.261 604.955 206.967C602.723 202.648 601.607 197.54 601.607 191.645C601.607 185.894 602.723 180.848 604.955 176.504C607.188 172.161 610.33 168.777 614.382 166.35C618.458 163.924 623.238 162.711 628.721 162.711C632.409 162.711 635.842 163.305 639.021 164.494C642.223 165.659 645.014 167.418 647.392 169.771C649.794 172.125 651.662 175.085 652.996 178.652C654.331 182.194 654.998 186.343 654.998 191.099V195.357H607.794V185.749H640.404C640.404 183.516 639.918 181.539 638.948 179.816C637.977 178.094 636.631 176.747 634.908 175.777C633.21 174.782 631.232 174.284 628.976 174.284C626.622 174.284 624.536 174.83 622.716 175.922C620.921 176.99 619.513 178.433 618.494 180.253C617.475 182.049 616.954 184.05 616.929 186.258V195.393C616.929 198.159 617.439 200.549 618.458 202.563C619.501 204.577 620.969 206.13 622.862 207.221C624.754 208.313 626.998 208.859 629.595 208.859C631.317 208.859 632.894 208.617 634.326 208.131C635.757 207.646 636.983 206.918 638.002 205.948C639.021 204.977 639.797 203.788 640.331 202.381L654.67 203.327C653.943 206.773 652.45 209.781 650.194 212.353C647.962 214.901 645.074 216.89 641.532 218.322C638.014 219.729 633.95 220.433 629.34 220.433ZM657.364 157.798V144.805H718.579V157.798H695.76V219.341H680.183V157.798H657.364ZM728.369 219.341V163.439H743.873V219.341H728.369ZM736.158 156.233C733.853 156.233 731.875 155.468 730.225 153.94C728.6 152.387 727.787 150.531 727.787 148.371C727.787 146.236 728.6 144.404 730.225 142.876C731.875 141.323 733.853 140.547 736.158 140.547C738.463 140.547 740.428 141.323 742.054 142.876C743.704 144.404 744.528 146.236 744.528 148.371C744.528 150.531 743.704 152.387 742.054 153.94C740.428 155.468 738.463 156.233 736.158 156.233ZM781.551 220.433C775.825 220.433 770.899 219.22 766.775 216.793C762.674 214.343 759.52 210.946 757.312 206.603C755.128 202.26 754.037 197.261 754.037 191.608C754.037 185.882 755.141 180.86 757.348 176.541C759.581 172.198 762.747 168.813 766.847 166.387C770.948 163.936 775.825 162.711 781.478 162.711C786.355 162.711 790.625 163.597 794.289 165.368C797.953 167.139 800.852 169.626 802.987 172.829C805.122 176.031 806.299 179.792 806.517 184.111H791.887C791.474 181.321 790.383 179.076 788.611 177.378C786.864 175.655 784.572 174.794 781.733 174.794C779.331 174.794 777.232 175.449 775.437 176.759C773.665 178.045 772.282 179.926 771.288 182.4C770.293 184.875 769.795 187.872 769.795 191.39C769.795 194.956 770.281 197.989 771.251 200.488C772.246 202.988 773.641 204.892 775.437 206.202C777.232 207.513 779.331 208.168 781.733 208.168C783.504 208.168 785.093 207.804 786.5 207.076C787.932 206.348 789.109 205.293 790.031 203.91C790.977 202.502 791.596 200.816 791.887 198.851H806.517C806.275 203.121 805.11 206.882 803.024 210.133C800.961 213.36 798.11 215.883 794.471 217.703C790.831 219.523 786.525 220.433 781.551 220.433ZM830.492 203.254L830.529 184.657H832.785L850.691 163.439H868.488L844.431 191.535H840.756L830.492 203.254ZM816.444 219.341V144.805H831.948V219.341H816.444ZM851.383 219.341L834.933 194.993L845.269 184.038L869.544 219.341H851.383Z" fill="#fff"/>
</svg>
